<svg width="25" height="25" viewBox="0 0 25 25" fill="none" xmlns="http://www.w3.org/2000/svg">
<path d="M12.5 0C9.10417 0 8.68021 0.015625 7.34687 0.075C6.01562 0.1375 5.10937 0.346875 4.3125 0.65625C3.49062 0.975 2.79271 1.40312 2.09792 2.09792C1.40312 2.79271 0.973958 3.48958 0.65625 4.3125C0.346875 5.10937 0.136458 6.01562 0.075 7.34687C0.0125 8.68021 0 9.10417 0 12.5C0 15.8958 0.015625 16.3198 0.075 17.6531C0.1375 18.9833 0.346875 19.8906 0.65625 20.6875C0.970096 21.5217 1.46208 22.2775 2.09792 22.9021C2.72216 23.5384 3.47802 24.0304 4.3125 24.3437C5.11042 24.6521 6.01667 24.8635 7.34687 24.925C8.68021 24.9875 9.10417 25 12.5 25C15.8958 25 16.3198 24.9844 17.6531 24.925C18.9833 24.8625 19.8906 24.6521 20.6875 24.3437C21.5215 24.0295 22.2772 23.5376 22.9021 22.9021C23.5386 22.278 24.0307 21.5221 24.3437 20.6875C24.6521 19.8906 24.8635 18.9833 24.925 17.6531C24.9875 16.3198 25 15.8958 25 12.5C25 9.10417 24.9844 8.68021 24.925 7.34687C24.8625 6.01667 24.6521 5.10833 24.3437 4.3125C24.0298 3.47835 23.5378 2.72263 22.9021 2.09792C22.2783 1.46108 21.5223 0.968948 20.6875 0.65625C19.8906 0.346875 18.9833 0.136458 17.6531 0.075C16.3198 0.0125 15.8958 0 12.5 0ZM12.5 2.25C15.8365 2.25 16.2344 2.26667 17.5521 2.32396C18.7708 2.38125 19.4323 2.58333 19.8719 2.75625C20.4573 2.98229 20.8719 3.25312 21.3115 3.68958C21.7479 4.12708 22.0187 4.54271 22.2448 5.12812C22.4156 5.56771 22.6198 6.22917 22.675 7.44792C22.7344 8.76667 22.7479 9.1625 22.7479 12.5C22.7479 15.8375 22.7323 16.2344 22.6708 17.5521C22.6073 18.7708 22.4042 19.4323 22.2323 19.8719C22.0289 20.4143 21.7093 20.9057 21.2958 21.3115C20.8918 21.7253 20.4008 22.0441 19.8583 22.2448C19.4208 22.4156 18.749 22.6198 17.5302 22.675C16.2031 22.7344 15.8125 22.7479 12.4687 22.7479C9.12396 22.7479 8.73333 22.7323 7.40729 22.6708C6.1875 22.6073 5.51562 22.4042 5.07812 22.2323C4.53532 22.0315 4.04445 21.7115 3.64167 21.2958C3.22352 20.8945 2.90283 20.4028 2.70417 19.8583C2.53229 19.4208 2.33021 18.749 2.26667 17.5302C2.21979 16.2177 2.20312 15.8125 2.20312 12.4844C2.20312 9.15521 2.21979 8.74896 2.26667 7.42083C2.33021 6.20208 2.53229 5.53125 2.70417 5.09375C2.92292 4.5 3.20312 4.09375 3.64167 3.65521C4.07812 3.21875 4.48542 2.9375 5.07812 2.71979C5.51562 2.54687 6.17292 2.34375 7.39167 2.28125C8.71979 2.23437 9.11042 2.21875 12.4531 2.21875L12.5 2.25ZM12.5 6.08125C11.6571 6.08125 10.8224 6.24728 10.0437 6.56985C9.26489 6.89242 8.55729 7.36522 7.96126 7.96126C7.36522 8.55729 6.89242 9.26489 6.56985 10.0437C6.24728 10.8224 6.08125 11.6571 6.08125 12.5C6.08125 13.3429 6.24728 14.1776 6.56985 14.9563C6.89242 15.7351 7.36522 16.4427 7.96126 17.0387C8.55729 17.6348 9.26489 18.1076 10.0437 18.4302C10.8224 18.7527 11.6571 18.9187 12.5 18.9187C14.2024 18.9187 15.835 18.2425 17.0387 17.0387C18.2425 15.835 18.9187 14.2024 18.9187 12.5C18.9187 10.7976 18.2425 9.16501 17.0387 7.96126C15.835 6.75751 14.2024 6.08125 12.5 6.08125ZM12.5 16.6667C10.1979 16.6667 8.33333 14.8021 8.33333 12.5C8.33333 10.1979 10.1979 8.33333 12.5 8.33333C14.8021 8.33333 16.6667 10.1979 16.6667 12.5C16.6667 14.8021 14.8021 16.6667 12.5 16.6667ZM20.6729 5.82812C20.6584 6.21628 20.4941 6.58371 20.2144 6.8532C19.9346 7.12269 19.5613 7.27326 19.1729 7.27326C18.7845 7.27326 18.4112 7.12269 18.1315 6.8532C17.8518 6.58371 17.6874 6.21628 17.6729 5.82812C17.6729 5.4303 17.831 5.04877 18.1123 4.76746C18.3936 4.48616 18.7751 4.32813 19.1729 4.32813C19.5707 4.32813 19.9523 4.48616 20.2336 4.76746C20.5149 5.04877 20.6729 5.4303 20.6729 5.82812Z" fill="black"/>
</svg>
