<svg width="25" height="21" viewBox="0 0 25 21" fill="none" xmlns="http://www.w3.org/2000/svg">
<path d="M24.4781 3.2169C24.3332 2.59783 24.0568 2.0338 23.6756 1.57932C23.2945 1.12484 22.8215 0.795293 22.3023 0.62252C20.3536 1.78484e-05 12.5111 1.76259e-05 12.5111 1.76259e-05C12.5111 1.76259e-05 4.68843 -0.0124073 2.71999 0.62252C2.20079 0.795293 1.72776 1.12484 1.34661 1.57932C0.965458 2.0338 0.689076 2.59783 0.544177 3.2169C0.174791 5.59572 -0.00731882 8.01049 0.000225076 10.4297C-0.00589269 12.8398 0.176211 15.2454 0.544177 17.6152C0.689076 18.2343 0.965458 18.7983 1.34661 19.2528C1.72776 19.7073 2.20079 20.0368 2.71999 20.2096C4.66654 20.8333 12.5111 20.8333 12.5111 20.8333C12.5111 20.8333 20.3328 20.8333 22.3023 20.2096C22.8215 20.0368 23.2945 19.7073 23.6756 19.2528C24.0568 18.7983 24.3332 18.2343 24.4781 17.6152C24.8383 15.2445 25.0128 12.839 24.9991 10.4297C25.0142 8.01135 24.8398 5.59658 24.4781 3.2169ZM10.0081 14.8916V5.95417L16.5355 10.4297L10.0081 14.8916Z" fill="black"/>
</svg>
